# AST/ASF file generated using VICON BodyLanguage
# -----------------------------------------------
:version 1.10
:name VICON
:units
  mass 1.0
  length 0.45
  angle deg
:documentation
   .ast/.asf automatically generated from VICON data using
   VICON BodyBuilder and BodyLanguage model FoxedUp or BRILLIANT.MOD
:root
   order TX TY TZ RX RY RZ
   axis XYZ
   position 0 0 0  
   orientation 0 0 0 
:bonedata
  begin
     id 1 
     name lhipjoint
     direction 0.624716 -0.669793 0.401383 
     length 2.38238 
     axis 0 0 0  XYZ
  end
  begin
     id 2 
     name lfemur
     direction 0.34202 -0.939693 0  
     length 6.4574  
     axis 0 0 20  XYZ
    dof rx ry rz
    limits (-160.0 20.0)
           (-70.0 70.0)
           (-60.0 70.0)
  end
  begin
     id 3 
     name ltibia
     direction 0.34202 -0.939693 0   
     length 7.68739   
     axis 0 0 20   XYZ
    dof rx
    limits (-10.0 170.0)
  end
  begin
     id 4 
     name lfoot
     direction 0.0681309 -0.187188 0.979959   
     length 2.46615   
     axis -90 7.62852e-016 20   XYZ
    dof rx rz
    limits (-45.0 90.0)
           (-70.0 20.0)
  end
  begin
     id 5 
     name ltoes
     direction 1.53566e-011 -4.21819e-011 1   
     length 1.2376   
     axis -90 7.62852e-016 20   XYZ
    dof rx
    limits (-90.0 20.0)
  end
  begin
     id 6 
     name rhipjoint
     direction -0.644473 -0.655875 0.393043   
     length 2.43293  
     axis 0 0 0  XYZ 
  end
  begin
     id 7 
     name rfemur
     direction -0.34202 -0.939693 0   
     length 6.7025   
     axis 0 0 -20   XYZ
    dof rx ry rz
    limits (-160.0 20.0)
           (-70.0 70.0)
           (-70.0 60.0)
  end
  begin
     id 8 
     name rtibia
     direction -0.34202 -0.939693 0   
     length 7.80547   
     axis 0 0 -20   XYZ
    dof rx
    limits (-10.0 170.0)
 end
 begin
     id 9 
     name rfoot
     direction -0.0756734 -0.207911 0.975216   
     length 2.40315  
     axis -90 -7.62852e-016 -20   XYZ
    dof rx rz
    limits (-45.0 90.0)
           (-20.0 70.0)
  end
  begin
     id 10 
     name rtoes
     direction -1.5353e-011 -4.21879e-011 1   
     length 1.20477   
     axis -90 -7.62852e-016 -20   XYZ
    dof rx
    limits (-90.0 20.0)
  end
  begin
     id 11 
     name lowerback
     direction 0.0160353 0.987463 -0.157037   
     length 2.18572   
     axis 0 0 0   XYZ
    dof rx ry rz
    limits (-20.0 45.0)
           (-30.0 30.0)
           (-30.0 30.0)
  end
  begin
     id 12 
     name upperback
     direction -0.00499661 0.999756 0.0215076   
     length 2.18016   
     axis 0 0 0   XYZ
    dof rx ry rz
    limits (-20.0 45.0)
           (-30.0 30.0)
           (-30.0 30.0)
  end
  begin
     id 13 
     name thorax
     direction -0.00921346 0.995333 0.0960619   
     length 2.24923   
     axis 0 0 0   XYZ
    dof rx ry rz
    limits (-20.0 45.0)
           (-30.0 30.0)
           (-30.0 30.0)
  end
  begin
     id 14 
     name lowerneck
     direction 0.0274184 0.991181 0.12965   
     length 1.70911   
     axis 0 0 0   XYZ
    dof rx ry rz
    limits (-20.0 45.0)
           (-30.0 30.0)
           (-30.0 30.0)
  end
  begin
     id 15 
     name upperneck
     direction 0.0015627 0.999959 -0.00893559   
     length 1.69312   
     axis 0 0 0   XYZ
    dof rx ry rz
    limits (-20.0 45.0)
           (-30.0 30.0)
           (-30.0 30.0)
  end
  begin
     id 16
     name head
     direction -0.00230242 0.999856 -0.0168327  
     length 1.80241  
     axis 0 0 0   XYZ
    dof rx ry rz
    limits (-20.0 45.0)
           (-30.0 30.0)
           (-30.0 30.0)
  end
  begin
     id 17 
     name lclavicle
     direction 0.955523 0.290741 -0.0494489  
     length 3.84275  
     axis 0 0 0   XYZ
    dof ry rz
    limits (-20.0 10.0)
           (0.0 20.0)
  end
  begin
     id 18 
     name lhumerus
     direction 1 -4.48967e-011 -3.18382e-028   
     length 5.17714   
     axis 180 -30 -90   XYZ
    dof rx ry rz
    limits (-60.0 90.0)
           (-90.0 90.0)
           (-90.0 90.0)
  end
  begin
     id 19
     name lradius
     direction 1 -4.48968e-011 -2.22911e-027   
     length 3.43679   
     axis 180 -30 -90   XYZ
    dof rx
    limits (-10.0 170.0)
  end
  begin
     id 20
     name lwrist
     direction 1 -4.48951e-011 -6.32245e-027   
     length 1.7184   
     axis 3.57107e-015 90 90   XYZ
    dof ry
    limits (-180.0 0.0)
 end
  begin
     id 21 
     name lhand
     direction 1 -4.48924e-011 -1.26431e-026   
     length 0.573117   
     axis 8.06912e-015 90 90   XYZ
    dof rx rz
    limits (-90.0 90.0)
           (-45.0 45.0)
  end
  begin
     id 22 
     name lfingers
     direction 1 -4.49001e-011 -2.52965e-026   
     length 0.462062   
     axis 1.61381e-014 90 90   XYZ
    dof rx
    limits (0.0 90.0)
  end
  begin
     id 23
     name lthumb
     direction 0.707107 -6.35008e-011 0.707107   
     length 0.663431   
     axis -90 45 -1.62303e-014   XYZ
    dof rx rz
    limits (-45.0 45.0)
           (-45.0 45.0)
  end
  begin
     id 24 
     name rclavicle
     direction -0.963917 0.256881 -0.0698287   
     length 3.73057  
     axis 0 0 0   XYZ 
    dof ry rz
    limits (-10.0 20.0)
           (-20.0 0.0)
  end
  begin
     id 25 
     name rhumerus
     direction -1 -4.48962e-011 -2.73982e-027  
     length 5.23908   
     axis 180 30 90   XYZ
    dof rx ry rz
    limits (-90.0 60.0)
           (-90.0 90.0)
           (-90.0 90.0)
  end
  begin
     id 26 
     name rradius
     direction -1 -4.48968e-011 -4.33218e-027   
     length 3.46485   
     axis 180 30 90   XYZ
    dof rx
    limits (-10.0 170.0)
  end
  begin
     id 27 
     name rwrist
     direction -1 -4.48989e-011 -6.32372e-027   
     length 1.73243   
     axis 3.57107e-015 -90 -90   XYZ
    dof ry
    limits (-180.0 0.0)
  end
  begin
     id 28
     name rhand
     direction -1 -4.48948e-011 -1.26448e-026   
     length 0.608752   
     axis 8.06912e-015 -90 -90   XYZ
    dof rx rz
    limits (-90.0 90.0)
           (-45.0 45.0)
  end
  begin
     id 29
     name rfingers
     direction -1 -4.48962e-011 -2.52913e-026   
     length 0.490792   
     axis 1.61381e-014 -90 -90   XYZ
    dof rx
    limits (0.0 90.0)
  end
  begin
     id 30
     name rthumb
     direction -0.707107 -6.34878e-011 0.707107   
     length 0.704682   
     axis -90 -45 1.62303e-014   XYZ
    dof rx rz
    limits (-45.0 45.0)
           (-45.0 45.0)
  end
:hierarchy
  begin
    root lhipjoint rhipjoint lowerback
    lhipjoint lfemur
    lfemur ltibia
    ltibia lfoot
    lfoot ltoes
    rhipjoint rfemur
    rfemur rtibia
    rtibia rfoot
    rfoot rtoes
    lowerback upperback
    upperback thorax
    thorax lowerneck lclavicle rclavicle
    lowerneck upperneck
    upperneck head
    lclavicle lhumerus
    lhumerus lradius
    lradius lwrist
    lwrist lhand lthumb
    lhand lfingers
    rclavicle rhumerus
    rhumerus rradius
    rradius rwrist
    rwrist rhand rthumb
    rhand rfingers
  end

#!OML:ASF G:\JayActor3\Patient Classification 1\Patient 1\Session 6\male.ASF
:FULLY-SPECIFIED
:DEGREES
110
root 36.3997 16.3042 10.4299 174.204 -38.9691 -173.858
lowerback 4.53391 -0.232193 0.198524
upperback 5.68105 -0.585895 -0.201607
thorax 3.30624 -0.402499 -0.316598
lowerneck -4.23802 -0.641959 2.32855
upperneck 0.910055 -1.03855 1.44582
head 0.976685 -0.501071 0.036002
rclavicle -1.2921e-014 1.43125e-014
rhumerus -34.1668 0.503573 -84.3233
rradius 38.7171
rwrist 0.67022
rhand -11.7428 -5.24112
rfingers 7.12502
rthumb 14.3048 -34.7284
lclavicle -1.2921e-014 1.43125e-014
lhumerus -26.0193 -3.68686 85.0784
lradius 26.8698
lwrist 18.3646
lhand -16.2209 12.716
lfingers 7.12502
lthumb 9.98701 42.4591
rfemur -13.451 2.71063 22.6523
rtibia 32.4006
rfoot -18.6382 -6.67166
rtoes -15.8644
lfemur -0.781769 13.0538 -15.7277
ltibia 18.4725
lfoot -16.3789 11.0997
ltoes -1.60708
111
root 36.4174 16.3008 10.4489 174.274 -38.6852 -173.928
lowerback 4.70751 -0.169721 0.0938973
upperback 5.76433 -0.514167 -0.287175
thorax 3.2964 -0.373535 -0.346623
lowerneck -4.27309 -0.597181 2.33921
upperneck 1.01808 -0.983508 1.48422
head 1.01706 -0.471277 0.0466809
rclavicle -6.50026e-014 1.59028e-014
rhumerus -34.0797 0.590181 -84.506
rradius 39.026
rwrist 0.537207
rhand -11.7806 -5.24344
rfingers 7.12502
rthumb 14.2684 -34.7333
lclavicle -6.50026e-014 1.59028e-014
lhumerus -25.8649 -3.87649 84.9727
lradius 26.9276
lwrist 18.4408
lhand -16.1974 12.7241
lfingers 7.12502
lthumb 10.0097 42.4661
rfemur -13.7302 2.63599 22.5442
rtibia 32.7244
rfoot -18.8005 -6.23327
rtoes -17.1673
lfemur -0.926818 13.2005 -15.7612
ltibia 18.6038
lfoot -16.4355 11.1447
ltoes -1.47816
112
root 36.4351 16.2978 10.4674 174.341 -38.4086 -174.007
lowerback 4.8914 -0.105562 -0.00930123
upperback 5.84488 -0.440824 -0.37803
thorax 3.27797 -0.34378 -0.383106
lowerneck -4.31845 -0.55433 2.35496
upperneck 1.1508 -0.931643 1.50866
head 1.06695 -0.442698 0.0521305
rclavicle 7.55382e-015 1.82882e-014
rhumerus -34.0099 0.69521 -84.6961
rradius 39.3372
rwrist 0.404554
rhand -11.8265 -5.24368
rfingers 7.12502
rthumb 14.2242 -34.7366
lclavicle 7.55382e-015 1.82882e-014
lhumerus -25.7084 -4.06339 84.8552
lradius 26.9894
lwrist 18.5104
lhand -16.176 12.732
lfingers 7.12502
lthumb 10.0303 42.4729
rfemur -14.0016 2.58225 22.4292
rtibia 33.0602
rfoot -18.9375 -5.83692
rtoes -18.2334
lfemur -1.03838 13.3162 -15.8051
ltibia 18.69
lfoot -16.4824 11.2167
ltoes -1.33488
113
root 36.4531 16.2949 10.4853 174.406 -38.1417 -174.097
lowerback 5.07769 -0.0404463 -0.10846
upperback 5.93113 -0.367359 -0.477335
thorax 3.2642 -0.314054 -0.430918
lowerneck -4.37189 -0.512413 2.37392
upperneck 1.29948 -0.881523 1.52408
head 1.12332 -0.414753 0.0542349
rclavicle 1.31198e-014 1.82882e-014
rhumerus -33.9463 0.82223 -84.8983
rradius 39.6506
rwrist 0.270187
rhand -11.8818 -5.25281
rfingers 7.12502
rthumb 14.1709 -34.7495
lclavicle 1.31198e-014 1.82882e-014
lhumerus -25.5434 -4.26843 84.7302
lradius 27.053
lwrist 18.5359
lhand -16.2363 12.7275
lfingers 7.12502
lthumb 9.97221 42.4713
rfemur -14.2629 2.54786 22.3072
rtibia 33.407
rfoot -19.0431 -5.48731
rtoes -19.0551
lfemur -1.11728 13.398 -15.8613
ltibia 18.7363
lfoot -16.5214 11.3168
ltoes -1.1783
114
root 36.4713 16.2921 10.5025 174.468 -37.8857 -174.204
lowerback 5.27002 0.0251383 -0.213357
upperback 6.02296 -0.294864 -0.582534
thorax 3.25301 -0.285388 -0.481915
lowerneck -4.43578 -0.469427 2.39775
upperneck 1.46486 -0.830524 1.52645
head 1.18687 -0.386163 0.0515317
rclavicle -1.43125e-013 2.22639e-014
rhumerus -33.884 0.972339 -85.1088
rradius 39.956
rwrist 0.138137
rhand -11.9491 -5.25885
rfingers 7.12502
rthumb 14.1061 -34.7601
lclavicle -1.43125e-013 2.22639e-014
lhumerus -25.368 -4.44629 84.5855
lradius 27.123
lwrist 18.5525
lhand -16.2886 12.7211
lfingers 7.12502
lthumb 9.92173 42.4673
rfemur -14.5099 2.53236 22.1759
rtibia 33.7648
rfoot -19.1124 -5.19724
rtoes -19.5753
lfemur -1.16391 13.4544 -15.9318
ltibia 18.7486
lfoot -16.5521 11.4366
ltoes -1.01522
115
root 36.4897 16.2893 10.5188 174.526 -37.645 -174.331
lowerback 5.46937 0.0903928 -0.328584
upperback 6.12096 -0.224749 -0.692554
thorax 3.2445 -0.258754 -0.532403
lowerneck -4.5013 -0.426182 2.42537
upperneck 1.64055 -0.779159 1.5145
head 1.2541 -0.357359 0.0438323
rclavicle -1.20464e-013 -2.38542e-015
rhumerus -33.824 1.14758 -85.3228
rradius 40.2493
rwrist 0.00766377
rhand -12.0252 -5.25894
rfingers 7.12502
rthumb 14.0327 -34.7652
lclavicle -1.20464e-013 -2.38542e-015
lhumerus -25.188 -4.59249 84.4256
lradius 27.2006
lwrist 18.545
lhand -16.3543 12.7124
lfingers 7.12502
lthumb 9.85838 42.4616
rfemur -14.7378 2.52587 22.0331
rtibia 34.1339
rfoot -19.145 -5.00485
rtoes -19.7642
lfemur -1.17732 13.4874 -16.0191
ltibia 18.7308
lfoot -16.5723 11.5712
ltoes -0.862298
116
root 36.5083 16.2867 10.5345 174.581 -37.4248 -174.467
lowerback 5.67298 0.152204 -0.448222
upperback 6.22125 -0.160711 -0.803279
thorax 3.23614 -0.235689 -0.581337
lowerneck -4.55725 -0.383714 2.45319
upperneck 1.82038 -0.728053 1.48907
head 1.32115 -0.328829 0.0320126
rclavicle -2.56432e-014 2.06736e-014
rhumerus -33.7631 1.34734 -85.5386
rradius 40.523
rwrist -0.116534
rhand -12.1074 -5.25025
rfingers 7.12502
rthumb 13.9535 -34.762
lclavicle -2.56432e-014 2.06736e-014
lhumerus -25.0131 -4.71888 84.2602
lradius 27.2845
lwrist 18.5007
lhand -16.4675 12.6868
lfingers 7.12502
lthumb 9.74912 42.4412
rfemur -14.9503 2.5234 21.8869
rtibia 34.5139
rfoot -19.144 -4.94646
rtoes -19.5756
lfemur -1.16754 13.498 -16.1156
ltibia 18.6854
lfoot -16.5822 11.7136
ltoes -0.719939
117
root 36.527 16.2844 10.5492 174.632 -37.2284 -174.609
lowerback 5.87868 0.21101 -0.569653
upperback 6.32157 -0.101861 -0.913255
thorax 3.22676 -0.21556 -0.62867
lowerneck -4.60479 -0.343747 2.4844
upperneck 2.00641 -0.679672 1.44866
head 1.38886 -0.30181 0.0149778
rclavicle 3.71727e-014 -7.15625e-015
rhumerus -33.701 1.56284 -85.7516
rradius 40.7705
rwrist -0.228875
rhand -12.1915 -5.2343
rfingers 7.12502
rthumb 13.8724 -34.7516
lclavicle 3.71727e-014 -7.15625e-015
lhumerus -24.8388 -4.79331 84.077
lradius 27.3788
lwrist 18.4691
lhand -16.5377 12.6683
lfingers 7.12502
lthumb 9.68144 42.4258
rfemur -15.1454 2.52374 21.7396
rtibia 34.9011
rfoot -19.1076 -5.04209
rtoes -18.9757
lfemur -1.13895 13.4912 -16.218
ltibia 18.6155
lfoot -16.5799 11.8557
ltoes -0.591392
118
root 36.5458 16.2824 10.5629 174.686 -37.0605 -174.759
lowerback 6.08003 0.264645 -0.694084
upperback 6.42113 -0.0508069 -1.02391
thorax 3.21912 -0.199594 -0.675101
lowerneck -4.64622 -0.305102 2.51903
upperneck 2.20431 -0.63272 1.39608
head 1.4595 -0.275561 -0.00642361
rclavicle 3.3197e-014 -4.6118e-014
rhumerus -33.6393 1.79365 -85.9643
rradius 40.9939
rwrist -0.326169
rhand -12.2817 -5.21531
rfingers 7.12502
rthumb 13.7855 -34.7386
lclavicle 3.3197e-014 -4.6118e-014
lhumerus -24.6693 -4.82253 83.8787
lradius 27.4845
lwrist 18.4459
lhand -16.5827 12.6591
lfingers 7.12502
lthumb 9.63799 42.4186
rfemur -15.3224 2.51637 21.5869
rtibia 35.2869
rfoot -19.0299 -5.29317
rtoes -18.0302
lfemur -1.09953 13.4698 -16.3292
ltibia 18.5267
lfoot -16.5666 11.9923
ltoes -0.495251
119
root 36.5646 16.2808 10.5755 174.741 -36.9224 -174.911
lowerback 6.27668 0.311934 -0.818399
upperback 6.51756 -0.0087434 -1.13202
thorax 3.21091 -0.188193 -0.718937
lowerneck -4.68885 -0.2668 2.55927
upperneck 2.41987 -0.586234 1.3284
head 1.53623 -0.249559 -0.0335132
rclavicle -6.30147e-014 3.49861e-014
rhumerus -33.5857 2.04778 -86.175
rradius 41.2039
rwrist -0.416927
rhand -12.3667 -5.20836
rfingers 7.12502
rthumb 13.7036 -34.7372
lclavicle -6.30147e-014 3.49861e-014
lhumerus -24.5143 -4.83157 83.6791
lradius 27.6016
lwrist 18.4094
lhand -16.6563 12.6532
lfingers 7.12502
lthumb 9.56694 42.416
rfemur -15.4796 2.49893 21.4337
rtibia 35.657
rfoot -18.8931 -5.66138
rtoes -16.8201
lfemur -1.05692 13.4426 -16.442
ltibia 18.4259
lfoot -16.5435 12.1083
ltoes -0.404879
